<svg id="Ebene_1" data-name="Ebene 1" xmlns="http://www.w3.org/2000/svg" viewBox="0 0 958.94 168.4"><defs><style>.cls-1{fill:#fff;}</style></defs><title>IONOS_CLOUD-Wht</title><g id="Ebene_3" data-name="Ebene 3"><path class="cls-1" d="M532.79,168.09a42.63,42.63,0,0,1-8.5-.86,44,44,0,0,1-29-20.73l-.15-.29a13,13,0,0,1,4.8-17.2,12.58,12.58,0,0,1,6.46-1.79,12.76,12.76,0,0,1,11.12,6.54c.13.22.28.47.44.71l1.35,1.84,1.82,1.84a17.7,17.7,0,0,0,8.29,4,18.21,18.21,0,0,0,14.3-3.27A17.25,17.25,0,0,0,550.9,126a17.86,17.86,0,0,0-5-13.88s-38.42-39.9-40.14-41.75a46.89,46.89,0,0,1-4.63-5.51c-5.42-7.68-7.12-16.74-6.28-25.7a41.88,41.88,0,0,1,5.41-17.77s1.76-3,2.28-3.73a48.63,48.63,0,0,1,8.78-8.95,46.07,46.07,0,0,1,7.35-4.42,42,42,0,0,1,54.79,16.91,12.41,12.41,0,0,1,1.33,9.65,12.75,12.75,0,0,1-6.07,7.85,12.2,12.2,0,0,1-6.23,1.69,12.68,12.68,0,0,1-11-6.5,16.7,16.7,0,0,0-11.18-7.91,17.38,17.38,0,0,0-13.56,3,16.51,16.51,0,0,0-6.41,12,16.82,16.82,0,0,0,4.57,13l39.28,40.5a43.5,43.5,0,0,1-31.38,73.68"/><path class="cls-1" d="M408.49,168.07a42.29,42.29,0,0,1-42.24-42.24V42.27a42.24,42.24,0,1,1,84.48-.06v83.62a42.29,42.29,0,0,1-42.24,42.24m0-142.53a16.76,16.76,0,0,0-16.74,16.73v83.56a16.56,16.56,0,0,0,16.38,16.74h.36a16.76,16.76,0,0,0,16.74-16.73V42.27a17,17,0,0,0-16.74-16.7"/><path class="cls-1" d="M244.28,86.21v69.1a12.75,12.75,0,0,1-25.5,0v-122Zm69.18,48.65V12.78a12.75,12.75,0,1,0-25.5,0V81.93ZM243.24,7.26,243.12,7A13.08,13.08,0,0,0,231.58.1a12.67,12.67,0,0,0-12.64,12.68v2.91l70.13,145.38a13.16,13.16,0,0,0,11.32,7,11,11,0,0,0,2.92-.37,12.49,12.49,0,0,0,9.94-12.38v-2.75l-70-145.3"/><path class="cls-1" d="M123.34,168.07A42.29,42.29,0,0,1,81.1,125.83V42.27a42.24,42.24,0,0,1,84.48,0v83.56a42.29,42.29,0,0,1-42.24,42.24m0-142.53A16.76,16.76,0,0,0,106.6,42.27v83.56a16.74,16.74,0,0,0,33.48,0V42.27a17,17,0,0,0-16.74-16.7"/><path class="cls-1" d="M13.86,168A13.8,13.8,0,0,1,0,154.26V13.73a13.89,13.89,0,0,1,27.29-3.46c.07.24.16.59.24,1l.09.6a13.85,13.85,0,0,1,.18,2.22V154A13.85,13.85,0,0,1,14.15,168H13.8"/><path class="cls-1" d="M648.52,168.18c-7.39,0-14.87-5-14.87-14.64V123.78c0-9.9,7.5-15.08,14.91-15.08s14.92,5.18,14.92,15.08a4.61,4.61,0,0,1-9.22,0v0a5.7,5.7,0,0,0-11.39-.48,3.84,3.84,0,0,0,0,.48v29.79c0,5.16,4.71,5.42,5.65,5.42.59,0,5.74-.15,5.74-5.23a4.61,4.61,0,0,1,9.22,0v0C663.48,163.11,655.77,168.18,648.52,168.18Z"/><path class="cls-1" d="M868.44,168.3c-7.32,0-14.72-5.2-14.72-15.13V113a4.44,4.44,0,0,1,8.87-.42,2.94,2.94,0,0,1,0,.42v40.15c0,4.61,3.15,6.25,5.85,6.25a6,6,0,0,0,4-1.52,6.5,6.5,0,0,0,1.83-5V113a4.44,4.44,0,0,1,8.88,0v39.89a15.18,15.18,0,0,1-4.62,11.46A14.7,14.7,0,0,1,868.44,168.3Z"/><path class="cls-1" d="M943.84,168.4,933,168.28a4.43,4.43,0,0,1-4.39-4.43V113a4.43,4.43,0,0,1,4.43-4.43h10.79c9.46,0,15.11,5.44,15.11,14.55v30.64C958.94,162.76,953.15,168.4,943.84,168.4Zm-6.36-8.94,6.4.07c4.44,0,6.19-1.64,6.19-5.85V123c0-3.51-1-5.68-6.23-5.68h-6.36Z"/><path class="cls-1" d="M712.23,168.22a4.9,4.9,0,0,1-4.92-4.88V113.51a4.93,4.93,0,0,1,9.68-1.22.63.63,0,0,0,.08.34v.22a5.14,5.14,0,0,1,.07.78v44.72h10.53a4.93,4.93,0,1,1,0,9.86H712.23Z"/><path class="cls-1" d="M792,168.23a15,15,0,0,1-15-15h0v-29.6a14.93,14.93,0,0,1,2.49-8.27L786,129v24.29a5.88,5.88,0,0,0,5.82,5.94h.12a6,6,0,0,0,5.93-5.64l4.89,10a14.91,14.91,0,0,1-10.82,4.64m0-50.54a6,6,0,0,0-5.93,5.57l-4.84-10a15,15,0,0,1,25.75,10.41v29.62a14.9,14.9,0,0,1-2.45,8.2l-6.6-13.63V123.63a6,6,0,0,0-5.93-5.94"/></g></svg>