<svg xmlns="http://www.w3.org/2000/svg" viewBox="0 0 612.971 197.645"><defs><style>.a{fill:#49bfb5;fill-rule:evenodd;}.b{fill:#000105;}</style></defs><title>logo-nat</title><path class="a" d="M106.253,158.574c-6.158.317-8.778,3.022-12.4,7.535a37.43,37.43,0,0,0-4.7,7.228,11.045,11.045,0,0,0-1.129,6.643,10.276,10.276,0,0,0,2.91,5.045,36.062,36.062,0,0,0,9.873,6.152c5.422,2.078,8.467-.762,10.41-4.094,2.65-4.539,8.472-19.2,6.723-24.361-1.473-4.34-7.7-4.352-11.684-4.149M80.764,191.109c0.954,0.922,6.169.66,7.795,0.416a6.85,6.85,0,0,0,3.192-1.133c1.232-.992.561-1.992-0.259-2.795-3.251-3.2-7.371-.373-9.96,2.215A1.8,1.8,0,0,0,80.764,191.109ZM38.255,65.025a20.07,20.07,0,0,1-1.31,2.264c-0.485.807-.91,1.49-1.409,2.324-0.924,1.547-1.845,2.994-2.722,4.625a33.671,33.671,0,0,0-3.586,11.234C28,94.6,30.263,102.9,33.488,110.191a140.985,140.985,0,0,0,12.531,20.717c2.744,3.4,12.006,8.613,15.385,10.641,4.77,2.861,14.26,8.066,19.27,10.371,1.643,0.754,3.415,1.543,4.934,2.412,1.584,0.906,3.324,1.852,3.732,3.732,1.006,4.633-6.533,16.711-9.082,20.469-2.113,3.123-3.859,5.125-8.8,6.035-4.205.772-19.562,1.539-22.879,3.008L46.2,188.988c0.445,1.633,6.818,1.924,8.369,2.027,3.639,0.228,15.633.527,18.172,2.56,1.445,1.152,6.267,1.592,8.519,1.859,9.238,1.092,19.759,1.4,29.24,1.826l9.962,0.383c0.346-1.811-.019-9.186.58-13.25,1.461-9.916,7.8-21.184,12.055-29.76,5.721-11.52,13.07-27.359,13.172-42.629a65.866,65.866,0,0,0-1.229-12.641c-1.079-5.861-2.046-8.08-5.084-12.272a38.74,38.74,0,0,0-5.194-5.287c-1.637-1.293-2.254-1.8-4-2.988a76.573,76.573,0,0,0-24.471-10.344c-3.2-.734-8.472-1.646-10.742-3.236C92.8,63.313,92.524,59.127,91.8,55.018,90.135,45.582,86.872,31.4,81.2,23.936c-2.244-2.953-3.91-4.3-7.67-6.3-6.711-3.584-14.748-4.867-23.412-3.664a82.414,82.414,0,0,0-21.56,6.383c-7.039,3.391-9.988,7.35-13.8,14.029-2.354,4.127-2.62,5.48-6.866,8.8C7.538,43.451,7.27,43.7,6.912,44,4.2,46.295,3.852,46.2,1.66,49.23c-3.846,5.313-.516,5.42,4.955,5.555,6.27,0.148,16.094,3.766,21.808,6.141C29.771,61.488,37.728,64.578,38.255,65.025Z"/><path class="b" d="M189.331,64.027h-6.5a6.043,6.043,0,0,1-6.309-6.311V32.477q0-4.456-2.691-6.5A9.756,9.756,0,0,0,167.8,23.94a9.37,9.37,0,0,0-5.939,2.041q-2.6,2.045-2.6,6.5V64.027H146.274V35.074q0-12.618,6.59-16.887a28.765,28.765,0,0,1,14.568-4.641,27.931,27.931,0,0,1,15.031,4.27q6.864,4.269,6.867,17.258V64.027Z"/><path class="b" d="M230.938,17.074q-5.2-3.527-15.59-3.527-9.281,0-14.291,4.27a14.288,14.288,0,0,0-5.2,9.463H208.3a5.051,5.051,0,0,1,2.967-2.783,13.587,13.587,0,0,1,4.642-.742,19.048,19.048,0,0,1,5.287.836,3.514,3.514,0,0,1,2.877,3.617q0,3.715-8.164,4.826c-1.115.125-2.107,0.279-2.971,0.463a10.789,10.789,0,0,1-2.226.279,26.19,26.19,0,0,0-11.6,4.453q-4.55,3.343-4.545,11.137,0,8.35,5.008,11.971a19.461,19.461,0,0,0,11.692,3.617,74.507,74.507,0,0,0,7.7-.463,22.835,22.835,0,0,0,8.258-2.506,16.451,16.451,0,0,0,6.4-6.031q2.686-4.178,2.691-11.6V27.465A11.917,11.917,0,0,0,230.938,17.074ZM224.258,43.8a11.042,11.042,0,0,1-2.971,8.166,11.038,11.038,0,0,1-8.166,2.969,7.019,7.019,0,0,1-4.824-1.484,6.013,6.013,0,0,1-1.672-4.455,7.533,7.533,0,0,1,1.3-4.082A10.962,10.962,0,0,1,212.75,42.5l4.269-.928a35.078,35.078,0,0,0,7.238-2.412V43.8Z"/><path class="b" d="M212.434,4.033v6.338H202.247V0.184h6.34Q212.43,0.184,212.434,4.033Z"/><path class="b" d="M230.182,4.033v6.338H219.995V0.184h6.34Q230.178,0.184,230.182,4.033Z"/><path class="b" d="M272.788,28.578a8.857,8.857,0,0,0-7.609-3.9,9.38,9.38,0,0,0-7.981,3.711q-2.783,3.715-2.783,10.209V64.027H241.8V0.184h6.311a6.082,6.082,0,0,1,4.453,1.857,6.088,6.088,0,0,1,1.855,4.453v14.66a14.73,14.73,0,0,1,9.465-7.051,18.813,18.813,0,0,1,11.691.742,20.879,20.879,0,0,1,8.723,7.053q3.525,4.828,3.527,13.361V64.027H275.385V38.414a26.282,26.282,0,0,0-.463-5.1A12.841,12.841,0,0,0,272.788,28.578Z"/><path class="b" d="M313.663,64.027a97.171,97.171,0,0,1-13.268-.186q-7.148-.559-7.147-9.1V0.184h6.682A5.877,5.877,0,0,1,304.2,2.041a6.08,6.08,0,0,1,1.856,4.453v8.352h11.715v2.6a5.994,5.994,0,0,1-1.858,4.547,6.228,6.228,0,0,1-4.453,1.764h-5.4V51.221q0,3.158,3.713,3.156h3.9v9.65Z"/><path class="b" d="M350.631,61.984a22.858,22.858,0,0,1-8.258,2.506,74.593,74.593,0,0,1-7.7.463,19.459,19.459,0,0,1-11.693-3.617q-5.013-3.618-5.012-11.971,0-7.793,4.547-11.137a26.2,26.2,0,0,1,11.6-4.453,10.775,10.775,0,0,0,2.226-.279c0.863-.184,1.856-0.338,2.971-0.463q8.162-1.113,8.166-4.826A3.516,3.516,0,0,0,344.6,24.59a19.051,19.051,0,0,0-5.289-.836,13.556,13.556,0,0,0-4.639.742,5.053,5.053,0,0,0-2.971,2.783H319.266a14.29,14.29,0,0,1,5.2-9.463q5.01-4.269,14.291-4.27,10.389,0,15.588,3.527a11.912,11.912,0,0,1,5.383,10.391V44.355q0,7.424-2.691,11.6A16.46,16.46,0,0,1,350.631,61.984Zm-2.969-22.826a35,35,0,0,1-7.238,2.412l-4.269.928a10.973,10.973,0,0,0-4.824,2.412,7.547,7.547,0,0,0-1.3,4.082,6.02,6.02,0,0,0,1.67,4.455,7.019,7.019,0,0,0,4.824,1.484q5.2,0,8.166-2.969a11.043,11.043,0,0,0,2.971-8.166V39.158Z"/><path class="b" d="M408.256,64.027h-12.8V32.477q0-4.456-2.691-6.5a9.756,9.756,0,0,0-6.031-2.041,9.366,9.366,0,0,0-5.94,2.041q-2.6,2.045-2.6,6.5V64.027H365.2V35.074q0-12.618,6.588-16.887a28.764,28.764,0,0,1,14.566-4.641,37.683,37.683,0,0,1,8.354.926,17.587,17.587,0,0,1,7.422,3.715,16.373,16.373,0,0,1,6.59-3.434,36.774,36.774,0,0,1,7.887-1.207,27.921,27.921,0,0,1,15.031,4.27q6.864,4.269,6.867,17.258V64.027h-6.5a6.046,6.046,0,0,1-6.309-6.311V32.477q0-4.456-2.691-6.5a9.932,9.932,0,0,0-12.062,0q-2.7,2.045-2.691,6.5V64.027Z"/><path class="b" d="M476.4,61.984a22.868,22.868,0,0,1-8.26,2.506,74.535,74.535,0,0,1-7.7.463,19.461,19.461,0,0,1-11.691-3.617q-5.013-3.618-5.012-11.971,0-7.793,4.549-11.137a26.165,26.165,0,0,1,11.6-4.453,10.809,10.809,0,0,0,2.231-.279q1.295-.275,2.967-0.463,8.165-1.113,8.166-4.826a3.516,3.516,0,0,0-2.875-3.617,19.052,19.052,0,0,0-5.291-.836,13.572,13.572,0,0,0-4.639.742,5.058,5.058,0,0,0-2.971,2.783H445.038a14.3,14.3,0,0,1,5.2-9.463q5.016-4.269,14.291-4.27,10.389,0,15.59,3.527a11.91,11.91,0,0,1,5.381,10.391V44.355q0,7.424-2.689,11.6A16.473,16.473,0,0,1,476.4,61.984Zm-2.969-22.826A35.04,35.04,0,0,1,466.2,41.57l-4.269.928A10.952,10.952,0,0,0,457.1,44.91a7.531,7.531,0,0,0-1.3,4.082,6.019,6.019,0,0,0,1.668,4.455,7.032,7.032,0,0,0,4.826,1.484,11.041,11.041,0,0,0,8.166-2.969,11.043,11.043,0,0,0,2.971-8.166V39.158Z"/><path class="b" d="M512.184,64.027a97.2,97.2,0,0,1-13.27-.186q-7.143-.559-7.144-9.1V0.184h6.682a5.882,5.882,0,0,1,4.269,1.857,6.1,6.1,0,0,1,1.856,4.453v8.352h7.607v2.6a6,6,0,0,1-1.855,4.547,6.233,6.233,0,0,1-4.455,1.764h-1.3V51.221q0,3.158,3.711,3.156h3.9v9.65Z"/><path class="b" d="M560.659,14.658V43.611q0,13.181-6.867,17.26a28.878,28.878,0,0,1-15.033,4.082A29.787,29.787,0,0,1,524.194,60.5q-6.595-4.081-6.59-16.889V14.658h12.99V46.209q0,4.453,2.6,6.5a9.336,9.336,0,0,0,5.939,2.041,9.724,9.724,0,0,0,6.031-2.041q2.686-2.039,2.691-6.5V20.969a6.244,6.244,0,0,1,1.762-4.453,6,6,0,0,1,4.547-1.857h6.5Z"/><path class="b" d="M600.354,0h6.309a5.933,5.933,0,0,1,4.453,1.947,6.176,6.176,0,0,1,1.856,4.361V42.5q0,13.178-7.607,17.816a31.15,31.15,0,0,1-16.518,4.639,29.216,29.216,0,0,1-9.465-1.578,15.543,15.543,0,0,1-7.424-5.1q-5.385-6.861-5.383-18.742,0-11.7,5.383-18.744A18.09,18.09,0,0,1,594.414,15.4a17.687,17.687,0,0,1,5.939,5.752V0ZM579.2,38.971q0,7.427,2.783,11.322a9.211,9.211,0,0,0,7.979,3.9,9.031,9.031,0,0,0,7.8-3.9q2.6-3.9,2.6-11.322,0-6.68-2.785-10.578a9.7,9.7,0,0,0-7.979-3.711,8.856,8.856,0,0,0-7.611,3.9Q579.2,32.293,579.2,38.971Z"/><path class="b" d="M172.723,82.414h10.1a9.437,9.437,0,0,1,6.732,2.664,8.744,8.744,0,0,1,2.8,6.592V178.9H172.723V82.414Z"/><path class="b" d="M211.59,172.168a27.72,27.72,0,0,1-8.416-13.6,62.569,62.569,0,0,1-2.523-17.811,56.371,56.371,0,0,1,2.1-15.146,31.215,31.215,0,0,1,6.592-12.621,29.122,29.122,0,0,1,18.791-9.959,43.27,43.27,0,0,1,20.756,1.824A28.6,28.6,0,0,1,264.6,119.438q4.767,9.255,4.768,21.6a53.4,53.4,0,0,1-1.963,15.426,39.464,39.464,0,0,1-5.049,10.941,28.014,28.014,0,0,1-17.109,11.5,38.161,38.161,0,0,1-18.652.422Q217.2,177.217,211.59,172.168ZM225.053,122.8q-5.892,6.454-5.33,19.213t4.768,17.81q1.685,2.247,5.891,3.787a13.374,13.374,0,0,0,8.555.279q4.348-1.263,7.713-6.31t3.647-16.268q0-10.1-3.225-15.147t-7.434-6.451a13.66,13.66,0,0,0-8.414-.141A14.634,14.634,0,0,0,225.053,122.8Z"/><path class="b" d="M287.729,172.168a27.731,27.731,0,0,1-8.414-13.6,62.64,62.64,0,0,1-2.523-17.811,56.375,56.375,0,0,1,2.1-15.146,31.218,31.218,0,0,1,6.592-12.621,29.113,29.113,0,0,1,18.791-9.959,43.272,43.272,0,0,1,20.756,1.824,28.6,28.6,0,0,1,15.707,14.586q4.767,9.255,4.768,21.6a53.4,53.4,0,0,1-1.963,15.426A39.576,39.576,0,0,1,338.5,167.4a28.014,28.014,0,0,1-17.109,11.5,38.161,38.161,0,0,1-18.652.422Q293.333,177.217,287.729,172.168ZM301.192,122.8q-5.889,6.454-5.328,19.213t4.769,17.81q1.682,2.247,5.889,3.787a13.374,13.374,0,0,0,8.555.279q4.345-1.263,7.713-6.31t3.647-16.268q0-10.1-3.225-15.147t-7.434-6.451a13.66,13.66,0,0,0-8.414-.141A14.642,14.642,0,0,0,301.192,122.8Z"/><path class="b" d="M418.311,178.9H398.959V131.217q0-6.732-4.066-9.816a14.729,14.729,0,0,0-9.115-3.084A14.137,14.137,0,0,0,376.8,121.4q-3.932,3.088-3.926,9.816V178.9H353.241V135.145q0-19.069,9.957-25.523a43.5,43.5,0,0,1,22.02-7.014,56.982,56.982,0,0,1,12.619,1.4,26.545,26.545,0,0,1,11.221,5.611,24.769,24.769,0,0,1,9.957-5.189,55.744,55.744,0,0,1,11.92-1.824,42.234,42.234,0,0,1,22.719,6.451q10.371,6.454,10.379,26.086V178.9h-9.818a9.128,9.128,0,0,1-9.535-9.535V131.217q0-6.732-4.066-9.816a15.016,15.016,0,0,0-18.232,0q-4.069,3.088-4.068,9.816V178.9Z"/><path class="b" d="M520.979,175.813A34.513,34.513,0,0,1,508.5,179.6a111.75,111.75,0,0,1-11.641.7,29.384,29.384,0,0,1-17.67-5.469q-7.573-5.47-7.572-18.092,0-11.777,6.871-16.828t17.529-6.732a16.543,16.543,0,0,0,3.365-.42c1.309-.281,2.8-0.512,4.488-0.7q12.34-1.685,12.342-7.293,0-4.2-4.348-5.469a28.853,28.853,0,0,0-7.994-1.262,20.509,20.509,0,0,0-7.012,1.121,7.651,7.651,0,0,0-4.488,4.207H473.577a21.6,21.6,0,0,1,7.853-14.3q7.573-6.448,21.6-6.451,15.7,0,23.561,5.33a18.013,18.013,0,0,1,8.133,15.707v25.523q0,11.224-4.066,17.529A24.859,24.859,0,0,1,520.979,175.813Zm-4.488-34.5a52.994,52.994,0,0,1-10.939,3.647l-6.451,1.4q-5.051,1.406-7.293,3.647a11.411,11.411,0,0,0-1.963,6.17,9.105,9.105,0,0,0,2.523,6.732q2.525,2.247,7.293,2.244,7.852,0,12.342-4.488t4.488-12.342v-7.012Z"/><path class="b" d="M593.622,82.133h9.535a8.981,8.981,0,0,1,6.732,2.945,9.347,9.347,0,0,1,2.8,6.592v54.693q0,19.919-11.5,26.926a47.042,47.042,0,0,1-24.961,7.012,44.217,44.217,0,0,1-14.3-2.383,23.532,23.532,0,0,1-11.219-7.715q-8.139-10.371-8.135-28.328,0-17.669,8.135-28.328,8.414-10.939,21.6-10.939a26.134,26.134,0,0,1,12.342,2.807,26.683,26.683,0,0,1,8.977,8.693V82.133Zm-31.977,58.9q0,11.224,4.207,17.111t12.061,5.889a13.652,13.652,0,0,0,11.781-5.889q3.923-5.892,3.928-17.111,0-10.1-4.209-15.986a14.651,14.651,0,0,0-12.061-5.609,13.384,13.384,0,0,0-11.5,5.891Q561.645,130.941,561.645,141.033Z"/></svg>